<svg clip-rule="evenodd" fill-rule="evenodd" stroke-linejoin="round" stroke-miterlimit="2" viewBox="0 0 32 32" xmlns="http://www.w3.org/2000/svg" xmlns:serif="http://www.serif.com/"><path d="m15 3.038c-6.378.486-11.476 5.584-11.962 11.962h-1.038c-.552 0-1 .448-1 1s.448 1 1 1h1.038c.486 6.378 5.584 11.476 11.962 11.962v1.038c0 .552.448 1 1 1s1-.448 1-1v-1.038c6.378-.486 11.476-5.584 11.962-11.962h1.038c.552 0 1-.448 1-1s-.448-1-1-1h-1.038c-.486-6.378-5.584-11.476-11.962-11.962v-1.038c0-.552-.448-1-1-1s-1 .448-1 1zm-5.929 13.962h-4.026c.476 5.274 4.681 9.479 9.955 9.955v-4.026c-3.064-.439-5.49-2.866-5.929-5.929zm13.858 0c-.439 3.064-2.866 5.49-5.929 5.929v4.026c5.274-.476 9.479-4.681 9.955-9.955zm-6.929-6c2.76 0 5 2.24 5 5s-2.24 5-5 5-5-2.24-5-5 2.24-5 5-5zm0 2c-1.656 0-3 1.344-3 3s1.344 3 3 3 3-1.344 3-3-1.344-3-3-3zm0 2c.552 0 1 .448 1 1s-.448 1-1 1-1-.448-1-1 .448-1 1-1zm1-9.955v4.026c3.064.439 5.49 2.866 5.929 5.929h4.026c-.476-5.274-4.681-9.479-9.955-9.955zm-2 4.026v-4.026c-5.274.476-9.479 4.681-9.955 9.955h4.026c.439-3.064 2.866-5.49 5.929-5.929z"/></svg>