<svg clip-rule="evenodd" fill-rule="evenodd" stroke-linejoin="round" stroke-miterlimit="2" viewBox="0 0 32 32" xmlns="http://www.w3.org/2000/svg" xmlns:serif="http://www.serif.com/"><path d="m1 2v27c0 .552.448 1 1 1h28c.552 0 1-.448 1-1s-.448-1-1-1h-27v-26c0-.552-.448-1-1-1s-1 .448-1 1zm24.86 10.102-2.625 5.907c-.077-.006-.156-.009-.235-.009-.615 0-1.187.185-1.663.503l-3.474-2.606c.089-.283.137-.584.137-.897 0-1.656-1.344-3-3-3s-3 1.344-3 3c0 .463.105.902.293 1.293l-3.755 3.755c-.175-.031-.355-.048-.538-.048-1.656 0-3 1.344-3 3s1.344 3 3 3 3-1.344 3-3c0-.723-.256-1.386-.682-1.904l3.389-3.389c.391.188.83.293 1.293.293.615 0 1.187-.185 1.663-.503l3.474 2.606c-.089.283-.137.584-.137.897 0 1.656 1.344 3 3 3s3-1.344 3-3c0-.857-.36-1.631-.938-2.178l2.596-5.841c.113.012.227.019.342.019 1.656 0 3-1.344 3-3s-1.344-3-3-3-3 1.344-3 3c0 .818.328 1.56.86 2.102zm-17.86 9.898c.552 0 1 .448 1 1s-.448 1-1 1-1-.448-1-1 .448-1 1-1zm15-2c.552 0 1 .448 1 1s-.448 1-1 1-1-.448-1-1 .448-1 1-1zm-8-6c.552 0 1 .448 1 1s-.448 1-1 1-1-.448-1-1 .448-1 1-1zm13-5c.552 0 1 .448 1 1s-.448 1-1 1-1-.448-1-1 .448-1 1-1z"/></svg>