<svg id="Layer_2" height="512" viewBox="0 0 32 32" width="512" xmlns="http://www.w3.org/2000/svg"><path d="m27 8c-2.206 0-4 1.794-4 4 0 .74.215 1.424.567 2.019l-2.228 2.228c-.421-.151-.867-.247-1.339-.247s-.917.097-1.338.247l-2.909-2.909c.15-.42.247-.866.247-1.338 0-2.206-1.794-4-4-4s-4 1.794-4 4c0 .74.215 1.424.567 2.019l-2.228 2.228c-.421-.151-.867-.247-1.339-.247-2.206 0-4 1.794-4 4s1.794 4 4 4 4-1.794 4-4c0-.997-.38-1.899-.986-2.6l1.967-1.967c.595.351 1.28.567 2.019.567.997 0 1.899-.38 2.601-.986l2.385 2.385c-.606.701-.986 1.603-.986 2.601 0 2.206 1.794 4 4 4s4-1.794 4-4c0-.997-.38-1.899-.986-2.6l1.967-1.967c.595.351 1.28.567 2.019.567 2.206 0 4-1.794 4-4s-1.794-4-4-4zm-22 14c-1.103 0-2-.897-2-2s.897-2 2-2 2 .897 2 2-.897 2-2 2zm7-8c-1.103 0-2-.897-2-2s.897-2 2-2 2 .897 2 2-.897 2-2 2zm8 8c-1.103 0-2-.897-2-2s.897-2 2-2 2 .897 2 2-.897 2-2 2zm7-8c-1.103 0-2-.897-2-2s.897-2 2-2 2 .897 2 2-.897 2-2 2z"/></svg>