<svg clip-rule="evenodd" fill-rule="evenodd" stroke-linejoin="round" stroke-miterlimit="2" viewBox="0 0 32 32" xmlns="http://www.w3.org/2000/svg" xmlns:serif="http://www.serif.com/"><g transform="translate(-333 -148)"><path d="m348 161c0-.796-.316-1.559-.879-2.121-.562-.563-1.325-.879-2.121-.879-1.986 0-5.014 0-7 0-.796 0-1.559.316-2.121.879-.563.562-.879 1.325-.879 2.121v6c0 .796.316 1.559.879 2.121.562.563 1.325.879 2.121.879h7c.796 0 1.559-.316 2.121-.879.563-.562.879-1.325.879-2.121 0-.552-.448-1-1-1s-1 .448-1 1c0 .265-.105.52-.293.707-.187.188-.442.293-.707.293h-7c-.265 0-.52-.105-.707-.293-.188-.187-.293-.442-.293-.707v-6c0-.265.105-.52.293-.707.187-.188.442-.293.707-.293h7c.265 0 .52.105.707.293.188.187.293.442.293.707 0 .552.448 1 1 1s1-.448 1-1zm2 0c0-.796.316-1.559.879-2.121.562-.563 1.325-.879 2.121-.879h7c.796 0 1.559.316 2.121.879.563.562.879 1.325.879 2.121v6c0 .796-.316 1.559-.879 2.121-.562.563-1.325.879-2.121.879-1.986 0-5.014 0-7 0-.796 0-1.559-.316-2.121-.879-.563-.562-.879-1.325-.879-2.121 0-.552.448-1 1-1s1 .448 1 1c0 .265.105.52.293.707.187.188.442.293.707.293h7c.265 0 .52-.105.707-.293.188-.187.293-.442.293-.707v-6c0-.265-.105-.52-.293-.707-.187-.188-.442-.293-.707-.293h-7c-.265 0-.52.105-.707.293-.188.187-.293.442-.293.707 0 .552-.448 1-1 1s-1-.448-1-1zm-7 4h12c.552 0 1-.448 1-1s-.448-1-1-1h-12c-.552 0-1 .448-1 1s.448 1 1 1z"/></g></svg>