<svg xmlns="http://www.w3.org/2000/svg" version="1.1" xmlns:xlink="http://www.w3.org/1999/xlink" width="512" height="512" x="0" y="0" viewBox="0 0 32 32" style="enable-background:new 0 0 512 512" xml:space="preserve" fill-rule="evenodd" class=""><g transform="matrix(-6.123233995736766e-17,-1,1,-6.123233995736766e-17,2.3841858087791934e-7,31.999999284744263)"><path d="M15 13c0-.796-.316-1.559-.879-2.121A2.996 2.996 0 0 0 12 10H5c-.796 0-1.559.316-2.121.879A2.996 2.996 0 0 0 2 13v6c0 .796.316 1.559.879 2.121A2.996 2.996 0 0 0 5 22h7c.796 0 1.559-.316 2.121-.879A2.996 2.996 0 0 0 15 19a1 1 0 0 0-2 0 .997.997 0 0 1-1 1H5a.997.997 0 0 1-1-1v-6a.997.997 0 0 1 1-1h7a.997.997 0 0 1 1 1 1 1 0 0 0 2 0zm2 0c0-.796.316-1.559.879-2.121A2.996 2.996 0 0 1 20 10h7c.796 0 1.559.316 2.121.879.563.562.879 1.325.879 2.121v6c0 .796-.316 1.559-.879 2.121A2.996 2.996 0 0 1 27 22h-7a2.996 2.996 0 0 1-2.121-.879A2.996 2.996 0 0 1 17 19a1 1 0 0 1 2 0 .997.997 0 0 0 1 1h7a.997.997 0 0 0 1-1v-6a.997.997 0 0 0-1-1h-7a.997.997 0 0 0-1 1 1 1 0 0 1-2 0zm-7 4h12a1 1 0 0 0 0-2H10a1 1 0 0 0 0 2z" fill="#000000" opacity="1" data-original="#000000"></path></g></svg>