<svg clip-rule="evenodd" fill-rule="evenodd" stroke-linejoin="round" stroke-miterlimit="2" viewBox="0 0 24 24" xmlns="http://www.w3.org/2000/svg" xmlns:serif="http://www.serif.com/"><g transform="translate(-36 -72)"><path d="m48 74c-5.519 0-10 4.481-10 10s4.481 10 10 10 10-4.481 10-10-4.481-10-10-10zm0 2c4.415 0 8 3.585 8 8s-3.585 8-8 8-8-3.585-8-8 3.585-8 8-8zm3.307 9.664c.556-.371.89-.995.89-1.664s-.334-1.293-.89-1.664l-3.198-2.132c-.613-.409-1.402-.447-2.053-.099-.65.348-1.056 1.026-1.056 1.764v4.262c0 .738.406 1.416 1.056 1.764.651.348 1.44.31 2.053-.099zm-4.307-3.795 3.197 2.131s-3.197 2.131-3.197 2.131z"/></g></svg>