<svg clip-rule="evenodd" fill-rule="evenodd" stroke-linejoin="round" stroke-miterlimit="2" viewBox="0 0 32 32" xmlns="http://www.w3.org/2000/svg" xmlns:serif="http://www.serif.com/"><g transform="translate(-259 -111)"><path d="m263.189 124.655-.395-.516c-.335-.438-.963-.522-1.401-.187-.439.336-.523.964-.187 1.402l1.916 2.507c.163.213.405.352.672.385.266.033.535-.043.745-.21l2.387-1.9c.432-.344.504-.974.16-1.406-.344-.431-.973-.503-1.405-.159l-.519.413c.572-3.06 2.431-5.86 5.341-7.528 5.267-3.019 11.995-1.193 15.014 4.074s1.193 11.995-4.074 15.014-11.994 1.193-15.013-4.074c-.275-.479-.886-.645-1.365-.37-.479.274-.645.886-.371 1.365 3.568 6.224 11.519 8.382 17.744 4.814s8.382-11.519 4.814-17.744c-3.568-6.224-11.518-8.382-17.743-4.814-3.451 1.978-5.652 5.303-6.32 8.934zm11.811-3.64v6.584c0 .329.162.637.432.823l5.093 3.511c.454.314 1.077.199 1.391-.255.313-.455.198-1.078-.256-1.391l-4.66-3.213v-6.059c0-.552-.448-1-1-1s-1 .448-1 1z"/></g></svg>