<svg clip-rule="evenodd" fill-rule="evenodd" stroke-linejoin="round" stroke-miterlimit="2" viewBox="0 0 24 24" xmlns="http://www.w3.org/2000/svg" xmlns:serif="http://www.serif.com/"><g transform="translate(-108 -72)"><path d="m120 74c-5.519 0-10 4.481-10 10s4.481 10 10 10 10-4.481 10-10-4.481-10-10-10zm0 2c4.415 0 8 3.585 8 8s-3.585 8-8 8-8-3.585-8-8 3.585-8 8-8zm-2 12h4c.53 0 1.039-.211 1.414-.586s.586-.884.586-1.414c0-1.11 0-2.89 0-4 0-.53-.211-1.039-.586-1.414s-.884-.586-1.414-.586c-1.11 0-2.89 0-4 0-.53 0-1.039.211-1.414.586s-.586.884-.586 1.414v4c0 .53.211 1.039.586 1.414s.884.586 1.414.586zm4-6v4h-4v-4z"/></g></svg>