<svg clip-rule="evenodd" fill-rule="evenodd" height="512" stroke-linejoin="round" stroke-miterlimit="2" viewBox="0 0 32 32" width="512" xmlns="http://www.w3.org/2000/svg"><g transform="translate(-296)"><path d="m307 5h-7c-.552 0-1 .448-1 1s.448 1 1 1h1v18c0 1.326.527 2.598 1.464 3.536.938.937 2.21 1.464 3.536 1.464h12c1.326 0 2.598-.527 3.536-1.464.937-.938 1.464-2.21 1.464-3.536v-18h1c.552 0 1-.448 1-1s-.448-1-1-1h-7c0-.796-.316-1.559-.879-2.121-.562-.563-1.325-.879-2.121-.879h-4c-.796 0-1.559.316-2.121.879-.563.562-.879 1.325-.879 2.121zm14 2v18c0 .796-.316 1.559-.879 2.121-.562.563-1.325.879-2.121.879h-12c-.796 0-1.559-.316-2.121-.879-.563-.562-.879-1.325-.879-2.121v-18zm-7 5v11c0 .552.448 1 1 1s1-.448 1-1v-11c0-.552-.448-1-1-1s-1 .448-1 1zm-6 0v11c0 .552.448 1 1 1s1-.448 1-1v-11c0-.552-.448-1-1-1s-1 .448-1 1zm7-7h-6c0-.265.105-.52.293-.707.187-.188.442-.293.707-.293h4c.265 0 .52.105.707.293.188.187.293.442.293.707z"/></g></svg>